<svg version="1.2" xmlns="http://www.w3.org/2000/svg" viewBox="0 0 1080 618" width="1080" height="618">
	<defs>
		<clipPath clipPathUnits="userSpaceOnUse" id="cp1">
			<path d="m0 25.04h1080v593h-1080z"/>
		</clipPath>
		<clipPath clipPathUnits="userSpaceOnUse" id="cp2">
			<path d="m0 25h1080v593.33h-1080z"/>
		</clipPath>
		<clipPath clipPathUnits="userSpaceOnUse" id="cp3">
			<path d="m0 25.05h1080v592.99h-1080z"/>
		</clipPath>
	</defs>
	<style>
		.s0 { fill: #feffff } 
	</style>
	<g id="Clip-Path" clip-path="url(#cp1)">
		<g>
			<g>
				<g id="Clip-Path" clip-path="url(#cp2)">
					<g>
						<g id="Clip-Path" clip-path="url(#cp3)">
							<g>
								<path class="s0" d="m-128.25 618.25c1.47-0.07 2.95-0.2 4.43-0.2q662.83-0.01 1325.68-0.01c2.04 0 4.07 0 6.37 0 0-48.74 0-96.95 0-145.1-0.44-0.09-0.66-0.2-0.73-0.14-2.82 2.29-4.8 13.74-3.64 17.06 0.96 2.75 0.8 5.87 1.13 8.71-3.78 1.26-6.3 7.09-3.75 10.28 3.47 4.34 1.83 8.83 2.23 13.25 0.2 2.08-0.2 4.2-1.23 6.56-0.97-8.74-7.83-12.26-13.39-17.21-3.63-3.22-5.68-8.42-5.43-13.85q0.12-2.8-0.86-5.61-0.22 3.46-0.41 6.9c-0.38 6.65-3.29 11.79-9.05 15.5-5.96 3.84-9.33 9.23-8.65 16.46-6.54 0.05-6.52 0.05-6.56-5.82-0.08-11.07-0.27-22.13-0.18-33.19 0.01-1.49 1.56-2.91 2.08-4.47 0.47-1.39 1.12-3.21 0.59-4.35-1.82-3.92-1.56-10.4 0.35-12.84-0.47-2.35-1.15-3.97-1.05-5.54 0.34-5.25-1.37-9.59-5.88-12.41-6.11-3.83-8.75-9.26-8.83-16.16q-0.01-1.26-0.48-2.55c-0.72 4.68 0.04 9.71-3.73 13.56-0.97 1-1.65 2.36-2.78 3.09-5.74 3.69-8.66 8.29-8.63 15.54 0.03 4.21 1.91 8.23 0.85 12.42-0.46 1.77-1 3.54-1.22 5.34-0.14 1.15-0.01 3.29 0.43 3.39 4.01 1.05 2.55 3.99 2.56 6.4 0.03 5.77 0.01 11.53 0.01 16.77-6.57-4.99-13.97-9.13-19.19-15.1-3.09-3.54-6.5-8.27-7.71-12.86-1.73-6.54-1.18-13.66-1.64-20.53-0.03-0.35-0.37-0.69-0.71-1.3-0.66 7.14-1.21 13.96-2.01 20.74-0.18 1.56-1.14 3.06-1.89 4.51-1.2 2.34-2.51 4.63-3.81 6.92-0.6 1.05-1.08 2.33-1.99 3.01-5.07 3.75-10.24 7.35-15.64 11.18 0-0.85-0.15-1.89 0.02-2.89 3.24-19.27-3.05-35.05-18.49-47.16-6.59-5.17-13.66-9.76-20.64-14.41-1.89-1.27-2.94-2.23-2.57-4.78 0.89-5.98-2.61-9.96-7.41-12.84-3.01-1.81-5.07-3.57-2.88-7.23 0.27-0.45 0.24-1.14 0.19-1.71q-1.41-16.66-2.88-33.32c-0.11-1.24-0.43-2.46-1.57-3.65-0.33 6.38-0.5 12.78-1.03 19.15-0.48 5.75-1.36 11.48-2.07 17.21-0.05 0.43-0.32 0.98-0.13 1.26 3.22 5.16-0.73 7.05-4.21 9.37-4.03 2.7-6.6 6.43-5.93 11.43 0.37 2.81-0.91 4-3.03 5.51-8.71 6.25-17.69 12.28-25.7 19.33-10.75 9.46-14.35 22.07-13.54 35.99 0.12 2.13 0.32 4.26 0.54 6.9-5.22-3.51-9.94-6.65-14.59-9.89-0.61-0.42-1.17-1.42-1.12-2.11 0.29-3.7-2.23-5.54-4.42-8.01-1.58-1.79-1.57-5.12-1.86-7.8-0.58-5.43-0.88-10.88-1.9-16.3-0.58 6.92-1.07 13.85-1.77 20.76-0.14 1.32-1 2.61-1.68 3.83-1.33 2.42-2.7 4.82-4.17 7.16-0.77 1.24-1.56 2.66-2.74 3.43-7.7 5.02-15.26 10.11-20.24 18.57q0-12.28 0-24.55c0-0.14-0.03-0.38 0.03-0.42 5.68-3.13 1.31-7.77 1.89-11.66 0.41-2.72 2.22-5.58 1.68-8.01-1.48-6.66-0.02-14.7-8.14-18.74-1.67-0.83-3.33-2.49-4.08-4.17-1.73-3.89-2.9-8.03-3.69-10.31-0.82 2.22-2.17 6.38-3.91 10.37-0.62 1.43-1.97 2.74-3.31 3.63-5.61 3.7-8.99 8.32-7.9 15.37 0.17 1.07-0.97 2.34-1.49 3.5 2.45 4.29 2.51 8.93 0.6 13.42-0.9 2.1-1.22 3.28 0.87 4.74 0.97 0.68 1.86 2.22 1.86 3.37 0.03 12.81-0.12 25.62-0.25 38.42-0.01 0.54-0.3 1.07-0.5 1.71-1.73 0-3.33 0-5.44 0-0.14-1.75-0.14-3.6-0.45-5.39-0.96-5.65-5.06-8.98-9.43-12.14-4.6-3.34-7.5-7.64-7.65-13.48-0.08-2.71-0.45-5.4-0.72-8.5-0.74 1.08-1.19 1.73-2.43 3.53 0-29.78 0-58.28 0-87.11 1.63-0.21 3.45-0.45 5.26-0.68-0.04-0.44-0.02-0.92-0.08-0.94-5.72-1.07-6.14-4.97-5.81-9.68 0.33-4.64 0.18-9.32 0.04-13.97-0.09-2.58 0.89-3.67 3.53-3.79 3.45-0.16 6.88-0.62 10.43-1.93-4.84-1.46-9.69-2.94-15.4-4.67 4.68-4.26 3.49-8.52 0.2-11.96-3.06-3.17-7.03-5.48-10.49-8.3-1.07-0.85-2.34-2.01-2.56-3.21-0.53-2.83-0.48-5.75-1.06-8.65-0.11 1.13-0.29 2.25-0.31 3.38-0.05 4.54-0.12 8.29-6.19 10.11-5.08 1.51-8.39 6.37-9.86 11.67-0.36 1.29-0.05 3.31 0.79 4.23 1.98 2.13 1.14 2.92-1.06 3.6q-5.89 1.85-11.77 3.7 0 0.56-0.01 1.13c3.48 0.3 6.96 0.82 10.44 0.84 3.19 0.03 4.54 0.99 4.34 4.33-0.31 4.64-0.31 9.32-0.14 13.97 0.15 4.37 0.63 8.69-5.57 9.99 1.63 0.27 3.26 0.54 5.2 0.87 0 17.36 0 34.76 0 52.9-9.73 0-19.57 0-29.63 0 0-12.97-0.16-26.05 0.11-39.11 0.07-3.39-0.88-5.55-3.93-7.2-2.86 1.72-4.37 3.73-3.97 7.43 0.23 2.25-1.32 4.67-2.26 7.62-2.19-3.49-3.75-4.11-4.62-0.12q-1.1-1.38-2.15-2.68c-0.66 0.8-1.31 1.6-2.62 3.2-0.18-2.81-0.03-5.11-0.56-7.26-0.57-2.31-1.79-4.47-2.76-6.79-4.16 1.77-4.99 4.08-5.14 7.35-0.09 2.08-1.85 4.08-2.78 5.95q-1.15-1.22-2.31-2.47c-0.78 0.89-1.57 1.79-2.1 2.4-0.65-0.72-1.4-1.56-2.15-2.41-0.6 0.85-1.19 1.7-1.84 2.63-0.5-0.81-1.09-1.78-1.98-3.24-0.93 1.43-1.57 2.41-2.01 3.07-0.7-0.78-1.45-1.61-2.19-2.46q-0.9 1.28-1.78 2.53c-3.54-2.99-3.39-7.2-2.81-11.34 0.47-3.32-1.13-5.18-4.7-7.54-1.47 2.98-2.79 5.66-3.83 7.76 0-6.31 0-13.55 0-21.21 4.15-0.42 8.49-0.86 12.83-1.3q-0.03-0.82-0.05-1.64c-3.54-0.62-7.08-1.34-10.64-1.82-3.21-0.43-3.73-1.51-1.9-4.24 0.75-1.11 0.91-3.13 0.42-4.41-1.88-4.93-5.15-9.09-10.29-10.81-3.24-1.08-4.1-2.7-4.1-5.61 0-1.97-0.31-3.94-0.85-5.91-0.08 1.44-0.29 2.9-0.19 4.33 0.25 3.84-0.98 5.82-5 7.74-3.87 1.86-6.61 6.28-9.34 9.93-0.78 1.05-0.28 3.6 0.48 5.04 1.25 2.4 0.95 3.41-1.79 3.82-3.45 0.52-6.88 1.2-10.32 1.81q-0.07 0.79-0.13 1.57c4.4 0.59 8.81 1.18 13.67 1.83 0 6.94 0.07 13.75-0.09 20.56-0.02 0.86-1.06 1.84-1.87 2.48-0.82 0.66-1.93 0.97-3.91 1.91 2.56 0.35 3.97 0.53 6.17 0.83-0.77 2.3-1.44 4.31-2.15 6.44-0.93-1.01-1.72-1.87-2.52-2.74-0.56 0.9-1.13 1.79-1.64 2.62-0.64-0.77-1.39-1.69-2.15-2.62-0.78 0.86-1.57 1.72-2.13 2.35-0.5-0.58-1.23-1.42-1.96-2.27-0.62 0.65-1.23 1.3-1.68 1.78-2.46-5.16 3.07-12.09-3.79-16.94-7.88 4.54-1.22 12.51-4.72 18.31-0.56-1.24-1.01-2.25-1.91-4.27-0.94 1.95-1.43 2.98-2.03 4.22-1.12-1.86-2.05-7.07-4.67-0.46-0.32-2.41-1.39-5.01-0.82-7.19 1.15-4.4-0.82-6.84-4.02-9.02-6.2 2.46-4.75 7.54-4.34 12.23-1.77-0.2-3.3-0.37-5.24-0.59-1.41-5.29-2.84-10.72-4.39-16.55 4.18 0 7.95 0 11.71 0q0.19-0.57 0.37-1.15c-2.91-0.7-5.81-1.46-8.74-2.06-5.31-1.09-5.17-1.01-3.6-5.89 0.44-1.35 0.22-3.36-0.55-4.53-1.66-2.52-3.45-5.92-5.95-6.76-5.95-1.99-6.55-6.01-6.46-10.96-0.1 1-0.31 2.01-0.31 3.01 0.04 3.39-0.57 6-4.71 7.03-2.08 0.52-3.75 2.63-6.16 4.44 0.32-3.84-2.6-7.66 2.41-10.21 0.74-0.37 1.09-2.06 1.1-3.14q0.09-22.06 0.02-44.11c-0.01-0.97-0.23-2.62-0.76-2.8-6.36-2.2-2.44-8.98-5.85-12.5-0.38-0.39 0.19-2.3 0.87-2.95 9.33-8.88 10.26-19.88 7.16-31.16-6.62-24.06-21.53-42.56-42.35-56.37-7.68-5.1-16.21-9.01-24.56-13.07-5.53-2.7-10.76-12.74-8.49-18.21 0.59-1.45 2.61-2.33 4.37-3.8 0.5-2.94 0.86-6.4-3.92-7.58-0.27-0.07-0.69-0.25-0.73-0.44-1.23-6.17-6.69-4.66-10.74-5.76-1.29-0.35-2.46-1.11-3.69-1.68 0.71-1 1.3-2.12 2.16-2.98 2.96-2.98 3.24-6.95 0.06-9.6-2.09-1.75-2.84-2.81-0.89-5.23 0.81-1.01 0.67-3.42 0.01-4.76-2.29-4.73-2.08-7.42 1.55-11.05 4.63-4.64 5.1-10.62 0.56-17.25 0.75 6.28-0.04 11.25-4.71 14.66-4.82 3.52-9.89 3.29-16.02 0.1 3.45 5.17 7.82 6.11 13.6 6.28-0.65 2.59-1.37 4.76-1.71 6.99-0.27 1.72-0.76 3.97 0.07 5.16 1.64 2.32 1.02 3.34-0.87 4.99-3.27 2.85-3 6.75 0.12 9.93 0.82 0.83 1.24 2.04 1.84 3.08-1.16 0.48-2.29 1.15-3.51 1.39-3.18 0.65-6.4 1.1-9.86 1.68 0 3.25-0.69 5.53-4.5 6.22-0.97 0.17-1.22 4.18-1.51 5.31 2.94 1.76 5.66 2.52 6.77 4.26 1.84 2.89-0.89 9.78-2.47 12.45-3.97 6.72-11.27 7.97-17.35 11.17-24.97 13.14-43.64 31.86-53.79 58.12-2.88 7.45-4.4 15.29-2.23 23.1 1.21 4.35 3.94 8.3 6.07 12.39 0.38 0.75 1.35 1.19 1.76 1.94 0.72 1.32-3.5 12.78-4.5 13.91-1.13 1.28-2.39 3.02-2.41 4.57-0.21 14.41-0.2 28.82-0.12 43.23 0.01 1.31 0.93 2.62 1.45 3.92 0.48 1.2 0.97 2.4 1.84 4.52-2.69-1.46-4.33-2.35-5.97-3.24 3.4-7.92-1.25-14.95-12.31-18.52-0.15-2.51-0.31-5.1-0.46-7.71q-0.24-0.03-0.48-0.06-0.53 3.68-1.07 7.46c-12.01 5.81-16.19 12.08-11.93 18.6q-3.74 1.64-7.44 3.25c0.24 1.44 0.49 2.88 0.84 4.92-2.6-0.64-5.1-1.26-7.59-1.87q0.03-0.94 0.07-1.89 3.4-0.52 6.82-1.04c-0.26-2.56-0.7-5.12-0.74-7.68-0.1-6.7-0.03-13.4-0.03-20.09 0-6.06 0-6.06 4.52-9.69-5.76-1.03-4.5-5.21-4.51-8.8-0.04-11.62-0.01-23.24-0.01-35.06 1.2-0.27 2.14-0.28 2.82-0.68 1.5-0.87 2.88-1.95 4.31-2.94-1.02-1.14-2.18-2.19-3.01-3.44-0.64-0.98-1.38-2.33-1.16-3.3 0.32-1.33 1.55-2.44 2.32-3.69 2.78-4.48 3.44-9.21-0.02-13.44-4.5-5.52-9.42-10.71-14.34-15.89-4.21-4.43-8.87-8.54-8.61-15.42-0.37 2.82 0 6.02-1.29 8.35-1.52 2.76-4.55 4.69-6.79 7.1-4.86 5.23-9.98 10.27-14.33 15.89-3.52 4.54-2.07 9.73 0.28 14.5 1.49 3.02 2.98 5.75-2.39 6.44-0.87 0.12-2.2 2.24-2.01 3.19 0.2 1.03 2.03 2.6 2.97 2.49 5.8-0.68 5.65 2.82 5.59 6.76-0.13 9.45 0 18.92-0.06 28.38-0.03 3.98 1.56 8.8-5.66 9.89 7.49 1.7 5.6 6.9 5.66 11.22 0.08 6.65 0.02 13.31 0.02 20.03-6.04-0.75-6.04-0.75-7.12-11.3-0.34 2.03-0.75 3.28-0.7 4.51 0.17 3.69-0.82 6.14-5.03 7.18-2.07 0.52-3.86 2.6-5.49 4.24-1.49 1.49-2.6 3.35-4.43 5.79-0.47-35.25-0.92-69.66-1.37-103.94 1.98-0.63 3.55-1.13 5.13-1.63q-0.07-0.62-0.13-1.23c-1.6-0.36-3.2-0.73-5.04-1.14 0-5.96 0-11.85 0-17.97 3.04-0.25 5.97-0.5 8.91-0.74q-0.04-0.91-0.09-1.81c-1.45-0.13-2.91-0.31-4.38-0.38-1.43-0.06-2.88-0.01-4.93-0.01 0-5.03 0.05-9.65-0.01-14.27-0.22-17.16-0.49-34.33-0.71-51.5q-0.04-2.83 0.21-5.67c0.34-4.02 1.26-7.76 5.3-9.94 0.88-0.48 1.55-1.34 2.31-2.04 8.71-7.97 8.71-7.97 7.32-20.92-2.78 0-5.66 0.02-8.55 0-1.19-0.01-3.27 0.18-3.41-0.23-1.41-4.03-5.08-3.26-8.22-4.3q3.73-1.68 7.46-3.36c0-2.22 0-4.35 0-6.69-2.81-0.18-5.42-0.36-8.39-0.55 0-7.34-0.52-14.48 0.25-21.48 0.33-2.91 2.97-5.99 5.32-8.23 10.22-9.72 10.94-17.38 1.66-28.06-5.97-6.86-12.96-12.92-18.42-20.11-4.34-5.72-7.25-12.53-10.41-19.04-0.8-1.65-0.12-4-0.12-6.93-3.92-3.38-0.11-9.29-2.2-13.45 0.95 3.13-2.39 6.43-1.03 10.45 0.31 0.95-1.61 2.62-1.77 3.89 0 2.02 0.41 4.14-0.07 6.04-2.73 11.21-10.09 19.53-18.03 27.52-4.66 4.68-9.17 9.54-13.25 14.7-5.98 7.55-5.6 15.94 1.67 22.3 6.36 5.56 8.9 11.75 8.23 19.99-0.62 7.52-0.16 15.12-0.2 22.69 0 0.27-0.19 0.53-0.41 1.09-2.62 0.17-5.37 0.35-8.35 0.54-0.13 1.79-0.25 3.35-0.38 5.03-1.4 0.55-2.76 1.1-4.14 1.6-9.57 3.48-10.27 4.5-8.64 14.41 0.21 1.26 1.63 2.91 2.86 3.34 11.14 3.94 13.01 12.5 12.86 22.73-0.31 19.91-0.09 39.82-0.09 60.18-4.15 0.19-7.17 0.32-11.45 0.51 3.33 3.78 7.04 1.53 10.15 2.91q0 8.44 0 17.67-2.51 0.59-4.96 1.17-0.14 0.51-0.29 1.03c1.49 0.59 2.98 1.19 5.57 2.21-0.65 12.83-1.35 26.27-2.01 39.7-0.09 1.71 0.2 3.46-0.1 5.11-0.3 1.63-1.31 3.12-1.66 4.75-0.25 1.2 0.06 2.53-0.65 3.23-2 3.13-3.57 6.69-6.15 9.28-3.16 3.17-6.86 6.68-10.96 7.74-2.19 0.56-5.69-3.72-8.59-5.82-6.05-4.38-4.86-10.83-4.77-16.83 0.02-1.81 1.55-3.59 1.95-4.43-0.8-2.93-1.89-5.26-2-7.64-0.27-5.96-0.31-11.94 0.01-17.9 0.15-3.03 1.26-6.02 1.94-9.04q0.76-0.01 1.52-0.03c-0.9-0.82-1.81-1.66-2.94-2.69 0.44-0.95 0.85-2.03 1.45-2.99 2.1-3.35 2.12-6.59-0.4-9.72-1.75-2.16-3.23-4.71-5.42-6.3-5.05-3.63-7.33-8.32-7.41-14.57 0.2 7.1-4.08 11.27-8.96 15.46-5.63 4.81-8.98 10.68-3.69 17.98-2.85 1.86-6.46 3.55-0.45 5.33 0.6 0.18 0.98 2 0.99 3.07 0.08 7.71 0.27 15.44-0.12 23.14-0.1 1.86-2.27 3.61-3.63 5.62 6.27 1.96 3.46 7.46 3.57 11.76 0.17 5.94-0.17 11.91-0.71 17.84-0.31 3.25-1.48 6.43-2.47 10.49 1.76 1.47 2.46 3.9-0.67 6.56-0.53 0.45-0.63 2.21-0.17 2.81 4.95 6.62 1.76 14.02 2.19 21.03 0.19 3.12-0.62 6.29-1.05 10.09-1.14-0.8-2.03-1.19-2.59-1.84-14.19-16.54-31.64-28.89-51.42-38.14-3.11-1.46-4.96-3.51-4.96-6.56 0.01-9.4-6.88-13.14-13.86-16.91-0.52-0.27-1.17-0.32-1.64-0.64-1.71-1.15-3.38-2.38-5.05-3.57 1.54-0.89 3.09-1.79 4.93-2.85-1.17-1.01-5.54-0.85-2.19-3.97-0.34-0.43-0.5-0.83-0.71-0.85-5.07-0.55-6.4-2.96-4.95-7.84 1-3.39-1.89-7.33 0.97-10.76 0.18-0.21 0.04-0.99-0.22-1.22-6.22-5.58-2.21-13.17-4.23-18.02-0.43 3.12-0.83 7.88-1.83 12.5-0.6 2.7-3.82 6.15-2.95 7.59 1.81 3.01 1.3 5.36 0.59 8.14-0.14 0.54-0.18 1.2-0.01 1.71 1.29 3.69 2.31 7.18-3.67 7.49-0.5 0.03-1.1 0.87-1.4 1.45-0.69 1.34-1.22 2.76-2.08 4.76-0.69-0.79-0.55-0.52-0.34-0.41q2.51 1.3 5.02 2.57c-1.67 1.31-3.24 2.74-5.01 3.9-3.42 2.26-7.19 4.09-10.37 6.63-3.17 2.54-5.11 6.01-4.76 10.34 0.36 4.34-1.77 7.03-5.81 8.76-4.63 1.97-8.97 4.59-13.65 6.38-2.06 0.78-4.68 0.35-7 0.13-1.09-0.1-2.1-1.01-3.15-1.57-7.45-3.99-7.6-4.27-6.58-13.09 10.73-2.38 17.24-8.74 18.55-19.73-3.49 8.32-9.07 14.25-18.68 15.42-5.09 0.62-9.49-0.1-12.87-4.79-2.33-3.24-5.85-5.68-8.9-8.41-0.26-0.23-1.02 0.16-1.51 0.07-3.07-0.54-6.09-1.16-6.63-5.23 1.95-0.54 3.74-1.03 4.58-1.26-0.69-1.77-1.02-3.48-1.97-4.75-0.67-0.89-2.13-1.53-3.31-1.68-2.91-0.37-3.11-1.65-2.52-4.19 0.53-2.29 0.14-4.79 0.11-7.21 0-0.42-0.44-1.04-0.27-1.24 3.62-4.3 0.02-7.39-1.35-11.2-1.54-4.27-1.41-9.13-1.98-13.74q-0.11-0.83 0.18-1.61c-0.38 5.27-0.72 10.56-1.22 15.83-0.08 0.89-0.64 1.98-1.33 2.52-2.1 1.6-2.93 3.18-1.02 5.49 0.48 0.58 0.62 1.59 0.59 2.39-0.16 3.81-0.42 7.61-0.71 12.3-0.18 0.05-1.45 0.22-2.56 0.73-0.95 0.44-1.99 1.1-2.53 1.95-0.78 1.22-1.15 2.7-1.76 4.26 0.72 0.52 2.3 1.67 3.89 2.81-1.93 1.16-3.78 2.47-5.81 3.44-7.7 3.69-14.55 7.81-14.83 17.7-0.05 1.92-2.21 4.61-4.1 5.52-19.94 9.63-37.7 22.01-52.15 38.71-0.26 0.3-0.72 0.44-2.07 1.22-0.64-4.97-1.5-9.41-1.73-13.89-0.4-7.56-1.02-15.18-0.27-22.65 0.29-2.97 2.59-4.89-0.27-8.43-1.83-2.27-0.34-7.02-0.59-10.65-0.19-2.79 0.85-3.99 3.63-4.89 11.66-3.81 17.47-12.25 18.81-24-3.91 10.01-10.38 17.26-21.48 19.7-2.81-7.97-2.14-12.18 2.99-16.04-5.73-1.01-4.66-5.12-4.67-8.75-0.02-6.11-0.1-12.22 0.07-18.33 0.04-1.43 0.72-2.97 1.55-4.18 0.62-0.91 1.94-1.35 2.95-2-1.06-0.88-2.12-1.76-3.44-2.84 0.03 0.1-0.21-0.27-0.1-0.44 4.96-8.09 0.77-14.03-5.29-18.84-5.23-4.15-7.88-8.93-7.2-15.79-0.41 0.51-0.67 0.68-0.67 0.86-0.07 7-2.87 12.54-8.86 16.55-1.29 0.87-2.02 2.49-3.1 3.69-4.23 4.72-2.91 9.34 0.64 13.77-1.31 1.01-2.3 1.77-3.71 2.86 5.11 2.56 3.79 6.95 3.83 10.91 0.06 5.67 0.15 11.36-0.05 17.03-0.07 1.92-0.97 3.81-1.72 6.57 0.37 0.87 1.21 2.86 2.04 4.84q-0.72 0.35-1.44 0.7-2.29-3.94-4.59-7.89-0.69 0.3-1.38 0.59c1.59 3.69 3.26 7.35 4.72 11.08 0.98 2.48 2.17 5.04 2.33 7.62 0.35 5.67 0.2 11.36 0.03 17.03-0.04 1.26-1 2.49-1.54 3.73-1.08-0.59-2.3-1.04-3.23-1.82-4.49-3.78-8.83-7.75-13.38-11.47-2.98-2.45-6.58-3.97-7.47-8.58-0.4-2.02-3.63-3.51-5.25-4.95-1.1-5.94-2.18-11.69-3.24-17.44q-0.38 0.01-0.76 0.02c-0.25 3.46-0.45 6.93-0.77 10.39-0.07 0.8-0.55 1.56-0.85 2.34-0.47 1.25-0.94 2.49-1.32 3.5-2.39 3.33-4.57 6.51-6.94 9.56-0.79 1-2.09 1.59-3.12 2.41-6.76 5.45-13.68 10.73-20.16 16.48-1.54 1.38-2.3 4.33-2.3 6.55-0.14 40.04-0.08 80.07-0.15 120.1 0 1.9-0.75 3.81-1.15 5.72q-0.01 58.99-0.01 117.95zm664.11-244.59c0-6.42 0.04-12.63-0.02-18.84-0.03-4.49 0.63-9.21-0.55-13.41-1.01-3.61 0.34-5.24 2.68-6.8 3.89-2.58 7.97-4.89 11.75-7.19 3.39 1.96 6.71 3.81 9.97 5.76 5.01 2.99 8.04 6.97 7.63 13.17-0.36 5.35-0.08 10.74-0.08 16.11 0 3.71 0 7.4 0 11.2-10.78 0-20.81 0-31.38 0zm-57.03-0.04c0-9.47 0.21-18.46-0.07-27.44-0.18-5.79 2.48-9.7 7.14-12.61 3.46-2.17 7.06-4.14 10.54-6.16 3.38 2.06 6.79 4.14 10.66 6.49-5.59 3.52-6.73 8.26-6.51 13.9 0.34 8.51 0.09 17.05 0.09 25.82-7.42 0-14.32 0-21.85 0zm127.41 0.06c0-8.48-0.27-16.48 0.09-24.45 0.3-6.66-0.75-12.45-7.48-16.12 3.39-2.13 6.36-4 9.21-5.79 3.31 1.96 7.02 3.61 10.02 6.09 2.85 2.35 6.81 5.4 7.06 8.39 0.85 10.51 0.33 21.13 0.33 31.89-6.49-0.01-12.53-0.01-19.23-0.01zm-173.93 60.44c-6.13-0.85-6.8-1.52-6.82-6.31-0.01-9.89 0.2-19.78-0.08-29.66-0.14-4.77 3.1-5.64 6.98-7.73 0 5.87-0.15 10.8 0.04 15.72 0.17 4.58 2 9.64-6.07 11.23 9.11 4.41 4.76 11.07 5.95 16.75zm471.22 48.65c-3.5-0.54-6.97-0.17-8.79-1.68-1.12-0.93-0.18-4.95 0.77-7.22 0.39-0.96 3.42-1.75 4.79-1.29 4.66 1.58 2.68 5.69 3.23 10.19zm235.64-0.65c1.47-3.72 2.34-6.67 3.87-9.25 0.34-0.58 3.99-0.34 4.34 0.37 1.29 2.59 1.82 5.54 2.79 8.88-3.9 0-6.5 0-11 0zm-540.21-86.07c1.16-2.7 1.82-4.88 3.05-6.71 0.38-0.57 3.04-0.61 3.37-0.1 1.25 1.92 1.96 4.17 3.1 6.81-3.67 0-5.96 0-9.52 0zm-0.35-0.08c-3.56 0-5.96 0-9.66 0 1.37-2.79 2.16-4.95 3.49-6.75 0.38-0.52 3-0.41 3.37 0.16 1.18 1.86 1.79 4.06 2.8 6.59zm-19.51 0.11c1.42-2.9 2.2-5.07 3.53-6.87 0.38-0.53 3-0.41 3.36 0.16 1.19 1.85 1.81 4.06 2.87 6.71-3.48 0-5.78 0-9.76 0zm-10.42-0.04c1.13-2.7 1.79-4.9 3.01-6.76 0.35-0.54 3.05-0.51 3.41 0.05 1.21 1.85 1.83 4.06 2.93 6.71-3.54 0-5.82 0-9.35 0zm-10.6 0.01c-3.77 0-5.92 0-9.27 0 1.07-2.7 1.73-4.89 2.86-6.82 0.29-0.49 2.77-0.56 3.08-0.09 1.23 1.88 2.02 4.05 3.33 6.91zm0.37 0.09c1.23-2.87 1.93-5.09 3.16-6.96 0.33-0.49 3.11-0.33 3.43 0.25 1.07 1.92 1.53 4.16 2.37 6.71-3.28 0-5.31 0-8.96 0zm-474.98-32.79c2.27 0.36 4.23 0.68 6.58 1.06-0.24 2.69-0.45 5.17-0.67 7.75-5.79-1.73-7.06-3.68-5.91-8.81zm430.7 32.77c1.11-2.78 1.8-4.97 2.92-6.94 0.23-0.4 2.74-0.31 3 0.18 1.05 1.95 1.62 4.15 2.55 6.76-3.16 0-5.05 0-8.47 0zm25.81 0c1.32-2.91 2.12-5.07 3.33-6.98 0.26-0.41 2.75-0.2 2.98 0.28 0.95 2.01 1.43 4.23 2.19 6.7-3.07 0-4.95 0-8.5 0zm-8.63-0.02c1.3-2.94 2.07-5.09 3.23-7.01 0.23-0.37 2.73-0.15 2.97 0.36 0.95 1.98 1.41 4.18 2.16 6.65-3.04 0-4.89 0-8.36 0zm-8.41 0.02c1.2-2.87 1.93-5.04 3.07-6.98 0.22-0.39 2.71-0.23 2.94 0.24 0.95 1.99 1.44 4.19 2.23 6.74-3.03 0-4.88 0-8.24 0zm-26.89-0.02c1.25-2.91 2-5.07 3.15-7 0.21-0.37 2.7-0.15 2.95 0.37 0.98 1.96 1.48 4.16 2.27 6.64-3.1-0.01-4.97-0.01-8.37-0.01zm9.01 0.04c1.13-2.86 1.82-5.04 2.91-7 0.21-0.37 2.75-0.2 2.96 0.25 0.9 2.03 1.33 4.24 2.03 6.75-2.89 0-4.62 0-7.9 0zm653.32 76.35c0 2.87 0.12 5.3-0.08 7.71-0.06 0.71-0.95 1.51-1.66 1.94-0.3 0.17-1.41-0.39-1.69-0.87-1.25-2.11 0.44-7.03 3.43-8.78zm-27.16-0.05c4.96 1.5 3.39 5.1 3.76 7.83 0.08 0.58-1.04 1.31-1.6 1.97-0.72-0.69-1.97-1.32-2.06-2.09-0.27-2.37-0.1-4.8-0.1-7.71zm-218.75 0.24c0 2.78 0.13 5.09-0.07 7.37-0.07 0.76-0.85 1.62-1.55 2.09-0.32 0.21-1.47-0.23-1.82-0.69-1.46-1.9 0.5-7.4 3.44-8.77zm-27.15 0.11c2.92 1.16 5 6.78 3.28 8.73-0.38 0.43-1.45 0.79-1.88 0.57-0.62-0.32-1.29-1.17-1.33-1.84-0.17-2.36-0.07-4.75-0.07-7.46z"/>
							</g>
						</g>
					</g>
				</g>
			</g>
		</g>
	</g>
</svg>